<svg width="24" height="24" viewBox="0 0 24 24" fill="none" xmlns="http://www.w3.org/2000/svg">
<path d="M21.0459 12.7899C20.8878 14.5001 20.246 16.1299 19.1955 17.4886C18.145 18.8473 16.7293 19.8787 15.1139 20.4622C13.4986 21.0457 11.7506 21.157 10.0743 20.7832C8.39798 20.4095 6.8628 19.566 5.64838 18.3516C4.43395 17.1372 3.59051 15.602 3.21673 13.9257C2.84296 12.2494 2.95432 10.5013 3.53778 8.88603C4.12124 7.27072 5.15267 5.85498 6.51139 4.80447C7.8701 3.75397 9.49989 3.11214 11.2101 2.9541C10.2088 4.30868 9.727 5.97764 9.85227 7.65742C9.97753 9.33721 10.7016 10.9162 11.8926 12.1073C13.0837 13.2984 14.6628 14.0224 16.3426 14.1477C18.0223 14.273 19.6913 13.7912 21.0459 12.7899Z" stroke="#0D0D0D" strokeWidth="1.92564" stroke-linecap="round" stroke-linejoin="round"/>
</svg>
