<svg width="114" height="114" viewBox="0 0 114 114" fill="none" xmlns="http://www.w3.org/2000/svg">
<mask id="mask0_1553_5669" style="mask-type:alpha" maskUnits="userSpaceOnUse" x="0" y="0" width="114" height="114">
<rect width="114" height="114" rx="27" fill="#D9D9D9"/>
</mask>
<g mask="url(#mask0_1553_5669)">
<rect width="114" height="114" rx="27" fill="white"/>
</g>
<g clip-path="url(#clip0_1553_5669)">
<path d="M87.8178 46.9863C86.8498 46.6825 85.8739 46.4005 84.89 46.1401C85.0535 45.5326 85.2052 44.9226 85.345 44.3103C87.5607 34.4742 86.1126 26.5475 81.159 23.9366C76.4112 21.4342 68.6485 24.0451 60.8067 30.2831C60.0338 30.8978 59.2794 31.5307 58.5435 32.1816C58.0503 31.7476 57.5491 31.3233 57.04 30.9087C48.8184 24.244 40.577 21.4378 35.6313 24.0487C30.8953 26.5584 29.4908 34.0114 31.477 43.3339C31.6801 44.2573 31.9043 45.1758 32.1496 46.0895C30.9903 46.3932 29.8627 46.7151 28.7865 47.0586C19.1524 50.1324 13 54.9419 13 59.9323C13 65.0854 19.6074 70.2565 29.6411 73.3845C30.4535 73.6401 31.2739 73.8763 32.1021 74.0933C31.833 75.0745 31.5957 76.0629 31.3899 77.0586C29.4829 86.2184 30.9705 93.4942 35.7025 95.9894C40.5849 98.5641 48.7828 95.9171 56.771 89.5381C57.404 89.0366 58.0371 88.5039 58.6701 87.9397C59.4667 88.6461 60.2844 89.3308 61.1232 89.9937C68.8621 96.0762 76.4982 98.528 81.2223 96.0328C86.1086 93.4472 87.6952 85.6326 85.6338 76.1256C85.4756 75.4024 85.2936 74.6623 85.0878 73.9053C85.6628 73.751 86.2273 73.5907 86.7812 73.4243C97.2146 70.2638 104 65.1541 104 59.9323C104 54.9202 97.6498 50.0781 87.8178 46.9863ZM63.3665 32.9663C70.0847 27.6215 76.3637 25.5169 79.2322 27.0213C82.2787 28.6268 83.4577 35.1035 81.5428 43.5979C81.4188 44.1524 81.283 44.7033 81.1353 45.2505C77.1254 44.4198 73.0598 43.8327 68.965 43.493C66.6187 40.4127 64.0477 37.4806 61.2696 34.7165C61.9501 34.1186 62.6464 33.5352 63.3586 32.9663H63.3665ZM39.8648 64.1885C40.6904 65.6447 41.5516 67.0791 42.4484 68.4918C43.3637 69.9383 44.3159 71.3643 45.305 72.7698C42.4879 72.4914 39.6882 72.0811 36.9172 71.5403C37.7243 69.1644 38.7134 66.6946 39.8687 64.1922L39.8648 64.1885ZM39.8648 55.8351C38.7332 53.3833 37.7678 50.9713 36.9765 48.6389C39.568 48.1073 42.3376 47.6734 45.2219 47.3443C44.2565 48.7184 43.3267 50.1167 42.4326 51.5391C41.5358 52.9518 40.6785 54.3838 39.8608 55.8351H39.8648ZM41.9301 60.0154C43.1276 57.7372 44.4201 55.5024 45.8075 53.311C47.1843 51.1172 48.6535 48.9776 50.215 46.8923C52.9213 46.7042 55.6948 46.603 58.5 46.603C61.317 46.603 64.0945 46.7042 66.8008 46.8923C68.3438 48.9776 69.8051 51.1112 71.1846 53.2929C72.572 55.4771 73.8803 57.7011 75.1095 59.9648C73.8961 62.2503 72.5931 64.4947 71.2004 66.6982C69.8209 68.8872 68.3649 71.0328 66.8324 73.135C64.1341 73.3158 61.3447 73.4026 58.5 73.4026C55.6671 73.4026 52.9134 73.3231 50.2625 73.1639C48.6905 71.0665 47.2081 68.9173 45.8154 66.7163C44.428 64.5224 43.1329 62.2876 41.9301 60.0118V60.0154ZM74.5714 68.4774C75.484 67.0236 76.3624 65.5531 77.2064 64.0656C78.3625 66.4553 79.3821 68.8984 80.2609 71.3848C77.459 71.9594 74.6262 72.4 71.7741 72.7047C72.7342 71.3112 73.6653 69.9009 74.5674 68.4737L74.5714 68.4774ZM77.1669 55.8387C76.3281 54.3826 75.4576 52.941 74.5556 51.5138C73.664 50.1107 72.7408 48.7245 71.786 47.3551C74.6861 47.6914 77.4676 48.1362 80.0828 48.6823C79.2431 51.1123 78.2699 53.502 77.1669 55.8424V55.8387ZM58.5396 37.2659C60.433 39.1518 62.221 41.124 63.8967 43.1748C60.3147 43.0181 56.7301 43.0181 53.1429 43.1748C54.9114 41.0413 56.7235 39.0596 58.5435 37.2659H58.5396ZM37.5858 27.1225C40.6323 25.5133 47.3584 27.8096 54.4564 33.5702C54.9114 33.939 55.3664 34.3224 55.8214 34.7201C53.0272 37.4846 50.4366 40.4153 48.0667 43.493C43.984 43.828 39.9293 44.4042 35.928 45.218C35.6959 44.3694 35.4876 43.5135 35.3029 42.6505V42.6577C33.5897 34.6659 34.7253 28.6413 37.5858 27.1297V27.1225ZM33.1387 70.6724C32.387 70.4747 31.6405 70.2613 30.8993 70.0323C27.0433 68.9236 23.4435 67.1756 20.28 64.8756C19.3747 64.3068 18.6067 63.5743 18.0235 62.7234C17.4403 61.8725 17.0542 60.9213 16.8893 59.9287C16.8893 56.9019 21.827 53.0398 30.0645 50.4181C31.1011 50.0854 32.1456 49.784 33.198 49.514C34.4203 53.0999 35.9007 56.608 37.6293 60.0154C35.8788 63.4724 34.38 67.0312 33.1427 70.6688L33.1387 70.6724ZM54.2111 86.873C51.2346 89.3684 47.7811 91.3419 44.0231 92.695C43.0332 93.1288 41.9565 93.3725 40.8595 93.411C39.7626 93.4496 38.6686 93.2822 37.6452 92.9192C34.7767 91.4004 33.5818 85.5639 35.208 77.7312C35.4031 76.803 35.6247 75.8821 35.8727 74.9684C39.9163 75.7614 44.0141 76.3027 48.1379 76.5885C50.527 79.6828 53.136 82.6303 55.948 85.412C55.3836 85.911 54.8059 86.3968 54.2151 86.8693L54.2111 86.873ZM58.6503 82.8517C56.8066 81.0364 54.9708 79.0258 53.1745 76.8633C54.9154 76.926 56.6906 76.9573 58.5 76.9573C60.3543 76.9573 62.1848 76.9212 63.9916 76.8489C62.3246 78.9319 60.5418 80.9355 58.6503 82.8517ZM82.2589 87.7951C82.1751 88.7963 81.8675 89.7712 81.3551 90.6594C80.8426 91.5476 80.1363 92.3303 79.2797 92.959C76.4112 94.4778 70.2786 92.5034 63.6633 87.3033C62.9062 86.7102 62.144 86.0762 61.3764 85.4012C64.1343 82.6107 66.6828 79.6532 69.0046 76.5487C73.1514 76.2291 77.2693 75.6491 81.3291 74.8129C81.5138 75.4976 81.6773 76.1678 81.8197 76.8235C82.7003 80.4265 82.8478 84.1469 82.255 87.7987L82.2589 87.7951ZM85.5587 70.0504C85.0562 70.2023 84.5458 70.3469 84.0235 70.4843C82.7518 66.8815 81.2131 63.3621 79.4181 59.9504C81.1468 56.5851 82.6272 53.1178 83.8494 49.5719C84.7753 49.8142 85.6813 50.0781 86.5517 50.3494C94.9791 52.9964 100.115 56.9164 100.115 59.9323C100.115 63.1507 94.5637 67.3238 85.5547 70.0504H85.5587Z" fill="#61DAFB"/>
<path d="M58.4997 52.5045C60.1074 52.5045 61.6789 52.9403 63.0155 53.7568C64.3521 54.5733 65.3937 55.7338 66.0086 57.0914C66.6234 58.4491 66.7839 59.9429 66.4697 61.3839C66.1555 62.8249 65.3807 64.1484 64.2434 65.1869C63.1061 66.2254 61.6573 66.9322 60.0803 67.218C58.5034 67.5038 56.8691 67.3557 55.3843 66.7924C53.8995 66.2291 52.6308 65.2759 51.7388 64.0535C50.8468 62.8311 50.3715 61.3943 50.3731 59.925C50.3762 57.9569 51.2338 56.0704 52.7575 54.6798C54.2812 53.2892 56.3465 52.5081 58.4997 52.5081" fill="#61DAFB"/>
</g>
<defs>
<clipPath id="clip0_1553_5669">
<rect width="91" height="74" fill="white" transform="translate(13 23)"/>
</clipPath>
</defs>
</svg>
